# xmcd CD database file
#
# Track frame offsets:
#	150
#	16085
#	36750
#	53100
#	74775
#	90675
#	111375
#	127725
#
# Disc length: 1988 seconds
#
# Revision: 3
# Processed by: cddbd v1.5PL3 Copyright (c) Steve Scherf et al.
# Submitted via: CDex 1.50Beta6
#
DISCID=6707c208
DTITLE=島谷ひとみ - 亜麻色マキシ
DYEAR=2002
DGENRE=JPop
TTITLE0=麻色の髪の乙女 〜フルウクレレバージョン〜
TTITLE1=Hold my Soul
TTITLE2=抱きしめて 〜晶のBallad〜
TTITLE3=A.S.A.P. 〜as soon as possible〜
TTITLE4=亜麻色の髪の乙女 〜フルウクレレバージョン〜 (instrumental)
TTITLE5=Hold my Soul (instrumental)
TTITLE6=抱きしめて 〜晶のBallad〜 (instrumental)
TTITLE7=A.S.A.P. 〜as soon as possible〜 (instrumental)
EXTD=YEAR: 2002
EXTT0=
EXTT1=
EXTT2=
EXTT3=
EXTT4=
EXTT5=
EXTT6=
EXTT7=
PLAYORDER=
